<svg width="767" height="631" viewBox="0 0 767 631" fill="none" xmlns="http://www.w3.org/2000/svg">
<g filter="url(#filter0_d_602_11)">
<path d="M539.143 521.137C547.624 521.091 556.014 519.355 563.835 516.029C571.655 512.703 578.752 507.852 584.722 501.752C590.691 495.652 595.416 488.424 598.625 480.479C601.835 472.535 603.467 464.029 603.428 455.449C603.389 446.869 601.681 438.382 598.399 430.473C595.118 422.564 590.329 415.387 584.305 409.353C578.28 403.318 571.14 398.545 563.29 395.304C555.44 392.063 547.034 390.419 538.554 390.465C521.426 390.558 505.031 397.531 492.975 409.85C480.92 422.169 474.191 438.825 474.269 456.153C474.347 473.481 481.226 490.063 493.392 502.25C505.559 514.436 522.016 521.231 539.143 521.137Z" fill="#FFED00"/>
<path d="M510.252 506.539L566.867 406.223C553.724 398.639 538.136 396.65 523.534 400.693C508.932 404.737 496.51 414.482 489.003 427.785C481.495 441.087 479.516 456.858 483.501 471.627C487.486 486.397 497.109 498.955 510.252 506.539V506.539ZM545.523 370.622C546.486 378.697 545.58 383.152 538.519 383.191C531.458 383.229 530.508 377.965 531.401 370.699C533.129 361.029 535.447 351.472 538.333 342.088C541.292 351.44 543.697 360.971 545.523 370.622ZM571.134 376.924C569.549 384.895 567.135 388.656 560.644 386.7C554.153 384.745 554.706 379.121 557.686 372.547C562.37 363.891 567.506 355.501 573.084 347.402C573.081 357.275 572.43 367.137 571.134 376.924V376.924Z" fill="#FFED00"/>
<path d="M593.642 390.875C589.738 397.922 586.28 400.986 580.706 396.918C575.131 392.85 577.308 387.802 582.145 382.506C589.241 375.722 596.709 369.348 604.514 363.414C601.489 372.799 597.861 381.964 593.642 390.875V390.875ZM610.864 411.157C604.87 416.693 600.711 418.472 596.635 412.874C592.559 407.275 596.591 403.155 602.478 399.61C611.279 395.358 620.302 391.632 629.512 388.455C623.775 396.412 617.547 403.994 610.864 411.157V411.157ZM620.93 435.927C613.653 439.246 609.372 439.62 606.912 433.076C604.452 426.532 609.416 423.694 616.47 422.251C626.138 420.908 635.872 420.112 645.627 419.867C637.713 425.707 629.473 431.08 620.93 435.927ZM622.902 462.498C615.036 463.478 610.517 462.566 610.485 455.423C610.453 448.28 615.773 447.314 622.837 448.213C632.429 449.964 641.908 452.301 651.227 455.201C641.958 458.261 632.489 460.701 622.902 462.498ZM616.781 488.528C608.903 486.932 605.188 484.493 607.125 477.807C609.063 471.122 614.622 471.795 621.117 474.804C629.657 479.453 637.944 484.572 645.956 490.126C636.207 490.205 626.463 489.671 616.781 488.528V488.528ZM602.982 511.321C595.903 507.261 592.994 503.764 597.02 498.121C601.045 492.478 606.032 494.676 611.264 499.683C617.947 506.83 624.241 514.34 630.116 522.181C620.854 519.128 611.798 515.488 602.982 511.321ZM582.805 528.645C577.454 522.702 575.698 518.378 581.235 514.25C586.772 510.121 590.842 514.197 594.226 520.151C598.629 529.027 602.525 538.163 605.924 547.489C597.844 541.691 590.124 535.397 582.805 528.645V528.645ZM558.428 538.848C555.154 531.488 554.788 527.158 561.258 524.663C567.729 522.169 570.53 527.306 571.835 534.325C573.164 544.107 573.903 553.952 574.051 563.822C568.344 555.832 563.121 547.488 558.428 538.848V538.848ZM532.164 540.982C531.201 532.907 532.107 528.452 539.167 528.414C546.228 528.375 547.178 533.64 546.284 540.905C544.494 550.562 542.18 560.114 539.353 569.515C536.329 560.178 533.927 550.645 532.164 540.982V540.982ZM506.439 534.681C508.024 526.71 510.438 522.949 516.928 524.905C523.419 526.86 522.981 532.483 519.886 539.058C515.276 547.73 510.174 556.125 504.605 564.201C504.613 554.332 505.225 544.474 506.439 534.681V534.681Z" fill="#FFED00"/>
<path d="M483.945 520.727C487.848 513.68 491.423 510.616 496.998 514.684C502.572 518.752 500.28 523.8 495.442 529.096C488.403 535.9 480.972 542.275 473.188 548.188C476.155 538.804 479.748 529.627 483.945 520.727ZM466.849 500.444C472.727 494.908 477.002 493.128 480.963 498.728C484.924 504.327 481.007 508.447 475.235 511.992C466.445 516.244 457.422 519.97 448.199 523.147C453.899 515.16 460.13 507.575 466.849 500.444V500.444ZM457.118 475.671C464.395 472.353 468.676 471.978 471.021 478.523C473.366 485.068 468.517 487.905 461.578 489.348C451.895 490.607 442.163 491.327 432.418 491.498C440.309 485.705 448.562 480.414 457.118 475.671ZM454.683 449.102C462.665 448.121 467.068 449.034 467.1 456.177C467.133 463.321 461.812 464.286 454.747 463.388C445.148 461.559 435.666 459.147 426.355 456.165C435.633 453.181 445.097 450.821 454.683 449.102V449.102ZM460.932 423.07C468.694 424.668 472.525 427.106 470.472 433.792C468.418 440.478 463.091 439.805 456.595 436.795C448.02 432.019 439.726 426.747 431.752 421.004C441.511 421.08 451.26 421.776 460.932 423.07ZM474.719 400.277C481.694 404.338 484.604 407.835 480.578 413.478C476.552 419.121 471.681 416.922 466.449 411.915C459.73 404.8 453.434 397.287 447.595 389.417C456.846 392.493 465.903 396.121 474.731 400.277L474.719 400.277ZM494.782 382.953C500.25 388.896 501.89 393.22 496.468 397.348C491.046 401.476 486.86 397.283 483.361 391.447C479.167 382.559 475.492 373.429 472.357 364.105C480.208 369.905 487.691 376.2 494.782 382.953ZM519.161 372.75C522.551 380.109 522.917 384.44 516.331 386.935C509.744 389.43 507.174 384.291 505.753 377.273C504.512 367.487 503.81 357.639 503.652 347.774C509.36 355.741 514.549 364.086 519.161 372.75ZM545.543 370.615C546.505 378.69 545.599 383.145 538.539 383.184C531.478 383.222 530.528 377.957 531.421 370.692C533.149 361.022 535.467 351.465 538.353 342.081C541.312 351.433 543.717 360.964 545.543 370.615Z" fill="#FFED00"/>
</g>
<g filter="url(#filter1_d_602_11)">
<rect x="44" y="380" width="570" height="141" rx="70.5" fill="#0395FE"/>
</g>
<path d="M152.76 468.248V471H129.656V478.808H122.104V471H99V468.248H113.592C110.136 466.2 107.384 463.448 105.336 459.992C103.331 456.493 102.328 452.589 102.328 448.28C102.328 441.709 104.589 436.227 109.112 431.832C113.635 427.395 119.224 425.176 125.88 425.176C132.536 425.176 138.125 427.395 142.648 431.832C147.171 436.227 149.432 441.709 149.432 448.28C149.432 452.547 148.408 456.451 146.36 459.992C144.355 463.491 141.603 466.243 138.104 468.248H152.76ZM122.104 456.92H129.656V464.088C133.197 463.235 136.077 461.357 138.296 458.456C140.557 455.512 141.688 451.971 141.688 447.832C141.688 443.651 140.152 439.981 137.08 436.824C134.051 433.667 130.317 432.088 125.88 432.088C121.443 432.088 117.688 433.667 114.616 436.824C111.587 439.981 110.072 443.651 110.072 447.832C110.072 451.971 111.181 455.512 113.4 458.456C115.661 461.357 118.563 463.235 122.104 464.088V456.92ZM207.086 468.248V471H192.814L188.334 460.824H165.934L161.454 471H147.182V468.248H154.606L173.102 426.264H181.166L199.662 468.248H207.086ZM185.262 453.848L177.134 435.416L169.006 453.848H185.262ZM204.538 468.248V465.176L230.586 433.368V433.176H205.37V426.264H241.082V432.152L215.098 463.832V464.024H241.466V468.248H247.674V471H198.33V468.248H204.538ZM299.054 468.248V471H284.782L280.301 460.824H257.901L253.421 471H239.149V468.248H246.573L265.069 426.264H273.133L291.63 468.248H299.054ZM277.229 453.848L269.101 435.416L260.973 453.848H277.229ZM347.257 468.248V471H324.153V478.808H316.601V471H293.497V468.248H308.089C304.633 466.2 301.881 463.448 299.833 459.992C297.828 456.493 296.825 452.589 296.825 448.28C296.825 441.709 299.087 436.227 303.609 431.832C308.132 427.395 313.721 425.176 320.377 425.176C327.033 425.176 332.623 427.395 337.146 431.832C341.668 436.227 343.93 441.709 343.93 448.28C343.93 452.547 342.905 456.451 340.857 459.992C338.852 463.491 336.1 466.243 332.601 468.248H347.257ZM316.601 456.92H324.153V464.088C327.695 463.235 330.575 461.357 332.793 458.456C335.055 455.512 336.186 451.971 336.186 447.832C336.186 443.651 334.65 439.981 331.577 436.824C328.548 433.667 324.815 432.088 320.377 432.088C315.94 432.088 312.185 433.667 309.113 436.824C306.084 439.981 304.569 443.651 304.569 447.832C304.569 451.971 305.679 455.512 307.897 458.456C310.159 461.357 313.06 463.235 316.601 464.088V456.92ZM365.423 468.248V471H347.887V468.248H365.423ZM406.474 468.248V471H366.09V468.248H372.298V426.264H379.85V463.832H400.266V468.248H406.474ZM456.676 468.248V471H442.404L437.924 460.824H415.524L411.044 471H396.772V468.248H404.196L422.692 426.264H430.756L449.252 468.248H456.676ZM434.852 453.848L426.724 435.416L418.596 453.848H434.852ZM489.776 468.248V471H451.12V468.248H466.672V433.176H453.104V426.264H487.792V433.176H474.224V468.248H489.776ZM506.513 468.248V453.336L489.873 426.264H498.129L510.353 446.616L522.577 426.264H530.833L514.193 453.336V468.248H530.321V471H490.385V468.248H506.513ZM537.17 468.248V426.264H544.722L570.706 459.672V426.264H578.258V468.248H584.466V471H570.066L544.722 438.36V471H530.962V468.248H537.17Z" fill="white"/>
<defs>
<filter id="filter0_d_602_11" x="422.355" y="342.081" width="232.872" height="235.434" filterUnits="userSpaceOnUse" color-interpolation-filters="sRGB">
<feFlood flood-opacity="0" result="BackgroundImageFix"/>
<feColorMatrix in="SourceAlpha" type="matrix" values="0 0 0 0 0 0 0 0 0 0 0 0 0 0 0 0 0 0 127 0" result="hardAlpha"/>
<feOffset dy="4"/>
<feGaussianBlur stdDeviation="2"/>
<feComposite in2="hardAlpha" operator="out"/>
<feColorMatrix type="matrix" values="0 0 0 0 0 0 0 0 0 0 0 0 0 0 0 0 0 0 0.25 0"/>
<feBlend mode="normal" in2="BackgroundImageFix" result="effect1_dropShadow_602_11"/>
<feBlend mode="normal" in="SourceGraphic" in2="effect1_dropShadow_602_11" result="shape"/>
</filter>
<filter id="filter1_d_602_11" x="26" y="365" width="610" height="181" filterUnits="userSpaceOnUse" color-interpolation-filters="sRGB">
<feFlood flood-opacity="0" result="BackgroundImageFix"/>
<feColorMatrix in="SourceAlpha" type="matrix" values="0 0 0 0 0 0 0 0 0 0 0 0 0 0 0 0 0 0 127 0" result="hardAlpha"/>
<feOffset dx="2" dy="5"/>
<feGaussianBlur stdDeviation="10"/>
<feComposite in2="hardAlpha" operator="out"/>
<feColorMatrix type="matrix" values="0 0 0 0 0.301961 0 0 0 0 0.647059 0 0 0 0 1 0 0 0 1 0"/>
<feBlend mode="normal" in2="BackgroundImageFix" result="effect1_dropShadow_602_11"/>
<feBlend mode="normal" in="SourceGraphic" in2="effect1_dropShadow_602_11" result="shape"/>
</filter>
</defs>
</svg>
